<svg aria-hidden="true" style="position:absolute;width:0;height:0" xmlns="http://www.w3.org/2000/svg" overflow="hidden"><defs><symbol id="icon-twitter" viewBox="0 0 32 32"><path d="M21.439 3.089a6.62 6.62 0 015.107 2.028l.002.002a10.627 10.627 0 003.368-1.148l-.056.028.804-.443a6.52 6.52 0 01-2.08 3.031l-.012.009a3.118 3.118 0 01-.693.497l-.017.008v.012a12.001 12.001 0 003.734-1.015l-.075.031v.012a10.594 10.594 0 01-2.175 2.497l-.017.014c-.336.271-.673.542-1.009.8a18.71 18.71 0 01-.318 4.277l.019-.117c-1.615 7.249-5.893 12.172-12.663 14.289-1.607.478-3.453.753-5.363.753-1.339 0-2.647-.135-3.91-.392l.125.021a24.246 24.246 0 01-3.959-1.304l.16.061a15.67 15.67 0 01-1.9-.987l.07.04c-.19-.111-.378-.234-.567-.345a11.016 11.016 0 002.095.072l-.03.001c.636-.098 1.259-.074 1.846-.197a13.222 13.222 0 003.945-1.438l-.067.034a7.377 7.377 0 001.759-1.151l-.008.007a5.627 5.627 0 01-1.963-.357l.039.013a6.547 6.547 0 01-4.087-4.089l-.013-.046a6.412 6.412 0 002.931-.146l-.045.011a4.63 4.63 0 01-2.126-.858l.013.009c-1.836-1.097-3.047-3.074-3.047-5.334 0-.067.001-.135.003-.202v.01c.222.098.442.209.662.308.389.163.844.296 1.316.376l.037.005a1.738 1.738 0 00.894.072l-.011.002h-.032c-.325-.369-.855-.628-1.183-1.034a6.572 6.572 0 01-1.628-4.341c0-.538.064-1.061.186-1.562l-.009.045a7.374 7.374 0 01.713-1.722l-.019.036c.011 0 .021.012.032.012.173.255.365.477.581.674l.003.003a11.717 11.717 0 001.896 1.826l.028.02a18.873 18.873 0 007.773 3.791l.127.024a12.15 12.15 0 002.893.381h.009a6.066 6.066 0 01.041-3.083l-.01.042a6.385 6.385 0 013.618-4.316l.041-.016a6.97 6.97 0 011.388-.435l.047-.008c.261-.037.524-.062.786-.098z"/></symbol><symbol id="icon-pinterest" viewBox="0 0 24 32"><path d="M10.173 20.771c-.261 1.049-.525 2.136-.797 3.197a23.478 23.478 0 01-.95 3.249l.054-.163a15.88 15.88 0 01-2.574 4.436l.022-.027c-.718.824-.566.5-.782.45-.165-.037-.179-.2-.211-.425a24.211 24.211 0 01.016-4.266l-.007.094c.115-1.598.376-3.08.774-4.506l-.038.159c.605-2.573 1.182-5.096 1.792-7.694.063-.162.104-.35.112-.546v-.004a7.84 7.84 0 01-.532-2.086l-.003-.037a6.8 6.8 0 01.184-2.483l-.011.047a4.044 4.044 0 012.34-2.913l.026-.01a2.747 2.747 0 012.182.182l-.015-.007a2.32 2.32 0 011.081 1.534l.002.015a5.598 5.598 0 01-.108 2.4l.009-.039c-.334 1.524-.772 2.673-1.17 4.134a4.597 4.597 0 00-.233 2.287l-.003-.025a2.654 2.654 0 001.05 1.593l.008.005a3.09 3.09 0 002.04.574l-.01.001a4.466 4.466 0 003.301-1.945l.01-.016a11.521 11.521 0 002.09-5.819l.002-.039a14.831 14.831 0 00.086-2.547l.002.037a6.815 6.815 0 00-1.419-3.913l.012.016a6.62 6.62 0 00-3.091-2.123l-.047-.013a10.12 10.12 0 00-2.958-.432c-.608 0-1.205.053-1.784.153l.062-.009A8.284 8.284 0 004.57 7.61l-.022.046a8.733 8.733 0 00-1.046 4.173v.091-.005a5.524 5.524 0 00.86 3.146l-.013-.022c.166.25.41.462.572.749a2.132 2.132 0 01-.154 1.461l.006-.013c-.137.537-.152 1.262-.772 1.274a1.714 1.714 0 01-.802-.303l.005.004a6.394 6.394 0 01-3.022-4.64l-.003-.032c-.118-.607-.185-1.304-.185-2.017s.067-1.411.196-2.086l-.011.069a11.591 11.591 0 015.442-7.652l.054-.029A12.78 12.78 0 0110.488.158l.067-.007c.59-.089 1.283-.147 1.987-.162h.018a11.993 11.993 0 015.48 1.029l-.076-.03c1.461.655 2.7 1.562 3.714 2.676l.008.009a10.137 10.137 0 012.273 4.063l.017.072c.292.849.472 1.829.499 2.847v.013a17.325 17.325 0 01-.407 3.076l.022-.116a11.66 11.66 0 01-4.759 8.033l-.035.024a8.568 8.568 0 01-5.012 1.374h.016a5.785 5.785 0 01-2.506-.739l.029.015a4.161 4.161 0 01-1.637-1.543l-.01-.019z"/></symbol><symbol id="icon-instagram" viewBox="0 0 32 32"><path d="M27.963 31.988H3.982a3.997 3.997 0 01-3.997-3.997V4.01A3.997 3.997 0 013.982.013h23.981A3.997 3.997 0 0131.96 4.01v23.981a3.997 3.997 0 01-3.997 3.997zM15.973 9.805h-.001a6.187 6.187 0 00-5.603 3.559l-.016.038a.343.343 0 01-.028.064l.001-.001c-.059.137-.11.275-.16.412-.024.062-.05.125-.071.187-.046.137-.084.287-.125.425a4.512 4.512 0 00-.052.2c-.032.15-.055.3-.076.462-.009.062-.021.125-.029.187a5.87 5.87 0 00-.036.661V16a6.195 6.195 0 1012.39 0 6.56 6.56 0 00-.039-.691l.003.029c-.008-.062-.02-.125-.029-.187a5.709 5.709 0 00-.076-.462 8.453 8.453 0 00-.052-.2c-.035-.137-.072-.287-.125-.425-.021-.062-.047-.125-.071-.187a7.763 7.763 0 00-.16-.412.297.297 0 01-.027-.06l-.001-.002c-1.004-2.14-3.139-3.596-5.615-3.597zm12.39-4.597v-.003c0-.882-.715-1.596-1.596-1.596h-3.203c-.882 0-1.596.715-1.596 1.596v3.203c0 .882.715 1.596 1.596 1.596h3.203c.882 0 1.596-.715 1.596-1.596v-3.2zm0 8.194h-2.948c.222.778.35 1.671.35 2.594 0 5.408-4.384 9.792-9.792 9.792s-9.792-4.384-9.792-9.792c0-.923.128-1.816.366-2.663l-.017.069H3.582v13.393c0 .882.715 1.596 1.596 1.596h21.589c.882 0 1.596-.715 1.596-1.596V13.402z"/></symbol><symbol id="icon-icon-search" viewBox="0 0 32 32"><path d="M31.101 26.862a3 3 0 11-4.248 4.238l-8.769-8.78A11.896 11.896 0 0111.952 24C5.307 24-.08 18.613-.08 11.968S5.307-.064 11.952-.064c6.645 0 12.032 5.387 12.032 12.032 0 2.255-.62 4.365-1.7 6.169l.03-.055 8.788 8.78zm-19.1-23.846a8.987 8.987 0 108.987 8.987 8.993 8.993 0 00-8.987-8.987z"/></symbol><symbol id="icon-icon-cart" viewBox="0 0 32 32"><path d="M31.182 9.067l-4.409 9.778c-.22.488-.689.829-1.241.86h-.004l-12.658.844.729 2.092h13.796a2.933 2.933 0 11-2.933 2.935H10.773a2.934 2.934 0 11-2.933-2.934h2.649L4.836 6.509h-3.36a1.467 1.467 0 010-2.934h4.409a1.484 1.484 0 011.383.975l.003.01.853 2.441h21.714c.81 0 1.467.656 1.468 1.467-.005.217-.05.422-.129.61l.004-.011zm-22.026.865l2.702 7.746 12.604-.841 3.111-6.905H9.155z"/></symbol><symbol id="icon-facebook" viewBox="0 0 15 32"><path d="M14.982.013v5.146s-3.793-.375-4.746 1.074c-.52.799-.211 3.123-.257 4.796h5.032c-.425 1.948-.729 3.272-1.043 4.971H9.951v15.988H2.979V16.063H.013v-5.034h2.934c.15-3.685.206-7.332 2.035-9.18C7.038-.237 9.001.013 14.983.013z"/></symbol></defs></svg>